<svg width="636" height="118.561" viewBox="0 0 636 118.561" xmlns="http://www.w3.org/2000/svg">
	<g id="svgGroup" stroke-linecap="round" fill-rule="evenodd" font-size="9pt" stroke="#000" stroke-width="0.25mm" fill="none" style="stroke:#000;stroke-width:0.25mm;fill:none">
		<path d="M 96.48 80.16 Q 96.72 79.8 97.26 79.86 A 0.705 0.705 0 0 1 97.447 79.905 Q 97.776 80.038 97.68 80.52 A 26.036 26.036 0 0 1 94.672 84.271 A 20.726 20.726 0 0 1 91.68 86.82 A 12.956 12.956 0 0 1 87.407 88.803 A 12.01 12.01 0 0 1 84.48 89.16 A 15.455 15.455 0 0 1 79.74 88.459 A 13.097 13.097 0 0 1 75.48 86.16 A 22.719 22.719 0 0 1 71.52 81.99 A 30.536 30.536 0 0 1 69.06 78.06 A 49.723 49.723 0 0 1 66.376 71.998 A 65.959 65.959 0 0 1 64.56 66.24 Q 62.76 59.52 61.2 52.2 A 1.711 1.711 0 0 1 61.252 51.767 A 1.145 1.145 0 0 1 61.68 51.12 Q 62.28 50.88 63 50.58 Q 63.551 50.351 64.454 49.945 A 143.161 143.161 0 0 0 65.04 49.68 A 0.906 0.906 0 0 1 65.212 49.642 Q 65.544 49.6 66.06 49.74 A 11.036 11.036 0 0 0 66.514 49.853 Q 67.057 49.977 67.8 50.1 Q 68.88 50.28 70.38 50.28 A 11.644 11.644 0 0 0 71.688 50.201 Q 72.326 50.129 73.038 49.99 A 23.072 23.072 0 0 0 73.92 49.8 A 19.799 19.799 0 0 0 78.852 47.989 A 15.459 15.459 0 0 0 83.64 44.04 A 15.521 15.521 0 0 0 86.845 36.715 A 21.119 21.119 0 0 0 87.12 33.24 A 21.232 21.232 0 0 0 86.278 27.128 A 16.986 16.986 0 0 0 82.56 20.52 A 16.668 16.668 0 0 0 74.207 15.569 A 23.724 23.724 0 0 0 69.96 14.88 A 30.07 30.07 0 0 0 66.981 18.968 Q 65.689 21.075 64.542 23.595 A 52.545 52.545 0 0 0 64.02 24.78 A 88.826 88.826 0 0 0 61.694 30.897 Q 60.586 34.145 59.569 37.821 A 147.553 147.553 0 0 0 59.28 38.88 A 148.039 148.039 0 0 1 55.994 49.73 Q 53.726 56.254 51.06 61.62 Q 46.674 70.448 41.415 76.347 A 46.882 46.882 0 0 1 40.56 77.28 A 41.662 41.662 0 0 1 34.169 82.869 A 33.723 33.723 0 0 1 28.08 86.28 Q 21.36 89.16 13.92 89.16 Q 10.32 89.16 7.74 88.08 A 12.432 12.432 0 0 1 4.59 86.198 A 11.299 11.299 0 0 1 3.42 85.08 Q 1.68 83.16 0.84 80.7 A 15.967 15.967 0 0 1 0.002 75.739 A 18.001 18.001 0 0 1 0 75.48 A 17.865 17.865 0 0 1 1.384 68.674 A 22.235 22.235 0 0 1 2.46 66.42 A 16.976 16.976 0 0 1 5.274 62.587 A 14.069 14.069 0 0 1 9 59.88 A 1.884 1.884 0 0 1 9.14 59.855 Q 10.064 59.722 9.84 60.84 A 12.582 12.582 0 0 0 6.379 63.34 A 11.323 11.323 0 0 0 4.5 65.94 Q 2.76 69.24 2.76 72.84 Q 2.76 79.08 6.48 82.32 A 12.094 12.094 0 0 0 10.844 84.699 Q 12.634 85.264 14.795 85.459 A 26.427 26.427 0 0 0 17.16 85.56 A 36.218 36.218 0 0 0 23.819 84.972 A 29.397 29.397 0 0 0 28.5 83.7 A 21.907 21.907 0 0 0 35.087 79.838 A 27.896 27.896 0 0 0 37.8 77.22 A 35.849 35.849 0 0 0 41.113 72.922 Q 42.655 70.6 44.105 67.776 A 71.795 71.795 0 0 0 45.6 64.68 A 97.651 97.651 0 0 0 48.266 58.15 Q 49.569 54.626 50.838 50.524 A 206.678 206.678 0 0 0 52.56 44.64 Q 55.029 35.792 57.852 29.105 A 84.782 84.782 0 0 1 58.8 26.94 A 51.962 51.962 0 0 1 62.214 20.589 A 38.109 38.109 0 0 1 66.72 14.76 A 49.463 49.463 0 0 0 51.9 17.198 A 38.415 38.415 0 0 0 32.4 31.92 Q 32.04 32.16 31.62 31.92 A 0.566 0.566 0 0 1 31.456 31.784 Q 31.279 31.563 31.405 31.177 A 1.559 1.559 0 0 1 31.44 31.08 A 41.988 41.988 0 0 1 45.597 18.241 A 49.327 49.327 0 0 1 46.8 17.58 A 45.286 45.286 0 0 1 58.118 13.466 Q 63.604 12.225 69.96 12 Q 72 10.44 74.28 9.3 Q 76.56 8.16 79.32 7.56 A 1.269 1.269 0 0 1 79.531 7.577 Q 79.92 7.643 79.92 7.98 A 0.554 0.554 0 0 1 79.735 8.391 Q 79.65 8.473 79.524 8.544 A 1.725 1.725 0 0 1 79.32 8.64 Q 75.84 9.6 72.96 11.88 A 18.911 18.911 0 0 1 78.104 12.562 A 16.747 16.747 0 0 1 80.64 13.5 Q 84.12 15.12 86.64 17.76 Q 89.16 20.4 90.54 23.7 Q 91.92 27 91.92 30.6 Q 91.92 35.4 89.76 39.48 Q 87.6 43.56 84.06 46.44 A 24.877 24.877 0 0 1 76.473 50.628 A 28.341 28.341 0 0 1 75.9 50.82 A 26.353 26.353 0 0 1 67.712 52.114 A 27.736 27.736 0 0 1 66.36 52.08 A 172.807 172.807 0 0 0 67.723 58.722 Q 68.393 61.675 69.103 64.215 A 74.454 74.454 0 0 0 70.56 68.88 A 56.06 56.06 0 0 0 72.184 73.002 Q 73.062 74.98 74.001 76.594 A 24.445 24.445 0 0 0 75.6 79.02 A 19.811 19.811 0 0 0 77.729 81.436 Q 79.011 82.659 80.374 83.43 A 10.706 10.706 0 0 0 81.54 84 Q 84.72 85.32 88.32 85.32 Q 90.84 85.32 92.7 84.06 Q 94.117 83.1 95.569 81.339 A 24.581 24.581 0 0 0 96.48 80.16 Z" id="0" vector-effect="non-scaling-stroke"/>
		<path d="M 121.32 63.72 Q 121.32 65.4 120 66.84 Q 118.822 68.125 116.881 69.171 A 17.791 17.791 0 0 1 116.4 69.42 A 33.37 33.37 0 0 1 113.791 70.581 A 44.601 44.601 0 0 1 111.18 71.52 Q 108.24 72.48 105 73.32 Q 104.88 74.64 104.82 75.96 Q 104.76 77.28 104.76 78.84 A 11.318 11.318 0 0 0 104.978 81.12 Q 105.294 82.657 106.068 83.862 A 7.232 7.232 0 0 0 106.08 83.88 Q 107.325 85.804 109.529 85.914 A 5.438 5.438 0 0 0 109.8 85.92 Q 112.2 85.92 114.3 84.72 Q 116.4 83.52 118.08 81.48 Q 118.518 81.261 118.757 81.543 A 0.632 0.632 0 0 1 118.8 81.6 Q 119.029 81.944 118.821 82.396 A 1.47 1.47 0 0 1 118.8 82.44 A 19.209 19.209 0 0 1 113.985 86.993 A 21.794 21.794 0 0 1 113.7 87.18 A 12.389 12.389 0 0 1 110.062 88.808 A 11.076 11.076 0 0 1 107.28 89.16 A 7.797 7.797 0 0 1 104.85 88.797 A 6.471 6.471 0 0 1 102.18 87.12 A 6.481 6.481 0 0 1 100.68 84.553 Q 100.35 83.535 100.247 82.297 A 14.164 14.164 0 0 1 100.2 81.12 A 22.156 22.156 0 0 1 100.665 76.697 A 28.449 28.449 0 0 1 101.52 73.5 A 32.255 32.255 0 0 1 104.733 66.543 A 30.081 30.081 0 0 1 105 66.12 A 23.106 23.106 0 0 1 107.878 62.471 A 19.459 19.459 0 0 1 109.98 60.6 A 11.065 11.065 0 0 1 112.597 59.086 A 8.878 8.878 0 0 1 115.92 58.44 A 5.267 5.267 0 0 1 118.286 58.967 A 5.307 5.307 0 0 1 119.76 60.06 A 5.863 5.863 0 0 1 120.826 61.558 A 4.878 4.878 0 0 1 121.32 63.72 Z M 113.4 61.56 A 6.068 6.068 0 0 0 109.525 62.967 A 8.8 8.8 0 0 0 108.48 63.96 Q 106.363 66.313 105.398 71.317 A 32.233 32.233 0 0 0 105.36 71.52 Q 110.352 70.793 113.045 69.479 A 10.178 10.178 0 0 0 113.82 69.06 Q 116.52 67.44 116.52 65.4 A 5.511 5.511 0 0 0 116.392 64.18 A 3.863 3.863 0 0 0 115.68 62.64 A 2.687 2.687 0 0 0 113.719 61.574 A 3.586 3.586 0 0 0 113.4 61.56 Z" id="1" vector-effect="non-scaling-stroke"/>
		<path d="M 142.443 68.131 A 0.864 0.864 0 0 0 142.68 68.16 A 2.101 2.101 0 0 0 142.754 68.122 Q 143.21 67.871 143.82 67.26 A 8.297 8.297 0 0 0 144.003 67.071 A 9.099 9.099 0 0 0 145.02 65.76 A 12.761 12.761 0 0 0 145.248 65.393 A 11.13 11.13 0 0 0 145.92 64.08 A 5.98 5.98 0 0 0 146.091 63.635 Q 146.28 63.075 146.28 62.64 Q 146.28 60.96 144.84 59.76 A 4.496 4.496 0 0 0 144.061 59.24 Q 142.776 58.56 140.88 58.56 A 8.888 8.888 0 0 0 137.451 59.262 A 11.909 11.909 0 0 0 135 60.66 A 18.916 18.916 0 0 0 132.769 62.575 A 22.645 22.645 0 0 0 129.9 66.12 A 28.746 28.746 0 0 0 128.595 68.303 A 32.865 32.865 0 0 0 126.3 73.68 Q 124.92 77.88 124.92 82.08 A 12.438 12.438 0 0 0 124.928 82.519 Q 124.969 83.687 125.233 84.67 A 6.405 6.405 0 0 0 126.66 87.36 A 5.786 5.786 0 0 0 128.557 88.77 A 5.927 5.927 0 0 0 131.04 89.28 Q 133.071 89.28 135.15 88.314 A 14.808 14.808 0 0 0 137.64 86.82 A 29.635 29.635 0 0 0 138.496 86.169 A 32.149 32.149 0 0 0 143.76 80.88 A 1.708 1.708 0 0 0 143.794 80.787 Q 143.863 80.581 143.855 80.413 A 0.576 0.576 0 0 0 143.64 79.98 Q 143.28 79.68 142.8 79.92 A 23.844 23.844 0 0 1 140.464 82.384 Q 139.054 83.659 137.645 84.422 A 8.763 8.763 0 0 1 133.44 85.56 A 5.436 5.436 0 0 1 133.219 85.556 Q 130.135 85.431 129.516 81.753 A 12.546 12.546 0 0 1 129.36 79.68 A 38.129 38.129 0 0 1 129.445 77.104 A 31.329 31.329 0 0 1 130.08 72.54 A 35.026 35.026 0 0 1 130.103 72.438 Q 130.819 69.202 132 66.78 A 16.308 16.308 0 0 1 132.089 66.6 Q 132.62 65.546 133.242 64.696 A 9.564 9.564 0 0 1 134.88 62.94 A 7.06 7.06 0 0 1 135.586 62.428 A 5.327 5.327 0 0 1 138.48 61.56 A 7.713 7.713 0 0 1 138.972 61.576 Q 141.323 61.726 142.14 63.36 A 4.15 4.15 0 0 1 142.575 65.243 Q 142.575 65.85 142.419 66.507 A 7.569 7.569 0 0 1 142.08 67.56 Q 142.08 68.027 142.443 68.131 Z" id="2" vector-effect="non-scaling-stroke"/>
		<path d="M 151.819 66.895 A 0.595 0.595 0 0 0 151.92 66.84 A 13.353 13.353 0 0 1 152.289 66.486 Q 152.943 65.881 153.934 65.097 A 55.687 55.687 0 0 1 154.86 64.38 A 376.927 376.927 0 0 1 155.056 64.232 Q 156.419 63.201 157.459 62.434 A 132.583 132.583 0 0 1 158.16 61.92 Q 157.35 63.135 156.521 64.616 A 59.779 59.779 0 0 0 155.22 67.08 Q 153.72 70.08 152.52 73.32 Q 151.32 76.56 150.54 79.74 A 34.993 34.993 0 0 0 150.206 81.24 Q 149.981 82.367 149.87 83.364 A 16.593 16.593 0 0 0 149.76 85.2 A 8.562 8.562 0 0 0 149.795 85.995 Q 150.09 89.16 152.88 89.16 Q 154.399 89.16 156.066 88.093 A 11.997 11.997 0 0 0 157.5 87 Q 159.96 84.84 162.12 82.2 A 1.173 1.173 0 0 0 162.127 82.186 Q 162.355 81.715 162 81.36 Q 161.7 81.06 161.483 81.177 A 0.36 0.36 0 0 0 161.4 81.24 A 55.72 55.72 0 0 1 160.367 82.39 Q 159.316 83.526 158.46 84.3 A 6.254 6.254 0 0 1 158.294 84.446 Q 157.844 84.825 157.386 85.059 A 3.269 3.269 0 0 1 155.88 85.44 Q 154.528 85.44 154.264 83.809 A 5.592 5.592 0 0 1 154.2 82.92 A 13.377 13.377 0 0 1 154.286 81.474 Q 154.448 79.986 154.92 78.06 A 54.993 54.993 0 0 1 155.411 76.2 A 64.858 64.858 0 0 1 156.78 71.94 A 71.816 71.816 0 0 1 156.852 71.742 A 77.911 77.911 0 0 1 159.42 65.52 A 93.27 93.27 0 0 1 160.553 63.158 A 78.086 78.086 0 0 1 162.48 59.52 A 2.322 2.322 0 0 0 162.479 59.456 Q 162.451 58.44 161.52 58.44 A 33.869 33.869 0 0 0 159.63 59.463 A 39.98 39.98 0 0 0 155.76 62.04 A 64.967 64.967 0 0 0 154.038 63.375 Q 153.239 64.018 152.562 64.611 A 28.716 28.716 0 0 0 151.2 65.88 A 0.723 0.723 0 0 0 151.163 65.942 Q 151.023 66.206 151.165 66.502 A 1.08 1.08 0 0 0 151.26 66.66 A 0.998 0.998 0 0 0 151.347 66.767 Q 151.568 67 151.819 66.895 Z M 162.612 53.374 A 0.972 0.972 0 0 0 162.72 53.28 Q 164.4 50.16 166.68 46.98 A 39.123 39.123 0 0 1 168.424 44.722 A 31.565 31.565 0 0 1 171.48 41.52 Q 171.72 41.28 171.36 40.98 A 1.289 1.289 0 0 0 171.314 40.944 Q 171.08 40.766 170.846 40.766 A 0.647 0.647 0 0 0 170.64 40.8 Q 165 45.72 161.88 50.04 A 1.741 1.741 0 0 0 161.579 50.695 A 2.381 2.381 0 0 0 161.52 51.24 Q 161.52 51.96 161.64 52.5 A 2.561 2.561 0 0 0 161.663 52.597 Q 161.787 53.068 162.06 53.34 Q 162.315 53.595 162.612 53.374 Z" id="3" vector-effect="non-scaling-stroke"/>
		<path d="M 191.742 60.07 A 4.276 4.276 0 0 0 188.4 58.56 Q 185.88 58.56 182.64 61.32 A 24.883 24.883 0 0 0 181.115 62.739 Q 178.612 65.262 176.04 69.12 Q 177.36 66.48 178.5 63.78 A 116.281 116.281 0 0 0 179.171 62.157 Q 179.487 61.378 179.761 60.663 A 64.249 64.249 0 0 0 180.36 59.04 A 8.276 8.276 0 0 0 180.615 58.37 Q 180.91 57.474 180.861 56.801 A 2.193 2.193 0 0 0 180.78 56.34 A 1.938 1.938 0 0 0 180.618 55.945 Q 180.413 55.576 180.067 55.425 A 1.356 1.356 0 0 0 179.52 55.32 Q 178.86 55.32 178.058 55.661 A 7.224 7.224 0 0 0 177.3 56.04 Q 176.04 56.76 174.78 57.78 Q 173.52 58.8 172.32 59.88 A 31.301 31.301 0 0 0 171.617 60.532 Q 170.895 61.223 170.4 61.8 Q 170.303 61.995 170.481 62.308 A 1.801 1.801 0 0 0 170.58 62.46 Q 170.88 62.88 171.12 62.64 A 16.717 16.717 0 0 1 171.15 62.607 A 15.277 15.277 0 0 1 173.16 60.72 A 24.576 24.576 0 0 1 173.653 60.347 Q 174.437 59.768 175.08 59.4 A 3.714 3.714 0 0 1 175.232 59.322 Q 176.231 58.836 176.505 59.531 A 1.376 1.376 0 0 1 176.58 59.82 Q 176.729 60.762 175.198 64.367 A 77.126 77.126 0 0 1 174.48 66 Q 172.68 70.08 170.88 74.4 Q 169.08 78.72 167.52 83.04 Q 165.713 83.605 165.713 84.064 A 0.234 0.234 0 0 0 165.72 84.12 Q 165.84 84.6 166.02 85.02 A 5.383 5.383 0 0 0 166.026 85.034 A 4.831 4.831 0 0 0 166.44 85.8 A 173.641 173.641 0 0 0 164.607 91.142 A 148.168 148.168 0 0 0 161.4 102.48 Q 160.305 107.066 159.834 111.027 A 47.72 47.72 0 0 0 159.48 116.64 Q 159.48 117.164 159.621 117.532 A 1.275 1.275 0 0 0 160.08 118.14 A 2.003 2.003 0 0 0 160.305 118.277 Q 160.851 118.56 161.64 118.56 A 13.435 13.435 0 0 0 163.756 118.388 A 16.913 16.913 0 0 0 166.44 117.72 Q 168.094 117.169 169.282 116.618 A 13.487 13.487 0 0 0 170.4 116.04 A 1.101 1.101 0 0 0 170.55 115.701 Q 170.614 115.45 170.58 115.14 A 1.471 1.471 0 0 0 170.574 115.093 Q 170.51 114.649 170.219 114.705 A 0.46 0.46 0 0 0 170.16 114.72 A 13.124 13.124 0 0 1 168.979 115.352 A 10.585 10.585 0 0 1 166.56 116.16 Q 163.8 116.52 163.8 113.88 Q 163.8 108 165.48 101.22 A 175.066 175.066 0 0 1 166.37 97.776 A 151.331 151.331 0 0 1 169.2 88.44 Q 170.52 89.28 172.56 89.28 A 21.958 21.958 0 0 0 173.268 89.269 A 18.833 18.833 0 0 0 180.96 87.42 Q 184.8 85.56 187.62 82.38 Q 190.44 79.2 192.06 75.06 Q 193.68 70.92 193.68 66.24 A 14.962 14.962 0 0 0 193.669 65.659 Q 193.553 62.691 192.24 60.72 A 6.016 6.016 0 0 0 191.742 60.07 Z M 175.56 86.88 Q 178.56 86.88 181.14 85.56 Q 183.72 84.24 185.58 81.9 A 16.487 16.487 0 0 0 187.878 77.964 A 19.872 19.872 0 0 0 188.46 76.38 A 21.278 21.278 0 0 0 189.357 71.951 A 26.498 26.498 0 0 0 189.48 69.36 A 13.367 13.367 0 0 0 189.34 67.363 Q 189.101 65.79 188.46 64.62 A 3.717 3.717 0 0 0 187.518 63.473 Q 186.772 62.883 185.727 62.782 A 4.623 4.623 0 0 0 185.28 62.76 A 4.13 4.13 0 0 0 183.45 63.241 Q 182.002 63.959 180.319 65.752 A 27.904 27.904 0 0 0 178.68 67.68 Q 174.84 72.6 171.6 81.6 Q 171.36 82.2 171.18 82.8 Q 171 83.4 170.76 84 Q 171.36 85.32 172.5 86.1 Q 173.449 86.75 174.94 86.859 A 8.538 8.538 0 0 0 175.56 86.88 Z" id="4" vector-effect="non-scaling-stroke"/>
		<path d="M 219.6 63.72 Q 219.6 65.4 218.28 66.84 Q 217.102 68.125 215.161 69.171 A 17.791 17.791 0 0 1 214.68 69.42 A 33.37 33.37 0 0 1 212.071 70.581 A 44.601 44.601 0 0 1 209.46 71.52 Q 206.52 72.48 203.28 73.32 Q 203.16 74.64 203.1 75.96 Q 203.04 77.28 203.04 78.84 A 11.318 11.318 0 0 0 203.258 81.12 Q 203.574 82.657 204.348 83.862 A 7.232 7.232 0 0 0 204.36 83.88 Q 205.605 85.804 207.809 85.914 A 5.438 5.438 0 0 0 208.08 85.92 Q 210.48 85.92 212.58 84.72 Q 214.68 83.52 216.36 81.48 Q 216.798 81.261 217.037 81.543 A 0.632 0.632 0 0 1 217.08 81.6 Q 217.309 81.944 217.101 82.396 A 1.47 1.47 0 0 1 217.08 82.44 A 19.209 19.209 0 0 1 212.265 86.993 A 21.794 21.794 0 0 1 211.98 87.18 A 12.389 12.389 0 0 1 208.342 88.808 A 11.076 11.076 0 0 1 205.56 89.16 A 7.797 7.797 0 0 1 203.13 88.797 A 6.471 6.471 0 0 1 200.46 87.12 A 6.481 6.481 0 0 1 198.96 84.553 Q 198.63 83.535 198.527 82.297 A 14.164 14.164 0 0 1 198.48 81.12 A 22.156 22.156 0 0 1 198.945 76.697 A 28.449 28.449 0 0 1 199.8 73.5 A 32.255 32.255 0 0 1 203.013 66.543 A 30.081 30.081 0 0 1 203.28 66.12 A 23.106 23.106 0 0 1 206.158 62.471 A 19.459 19.459 0 0 1 208.26 60.6 A 11.065 11.065 0 0 1 210.877 59.086 A 8.878 8.878 0 0 1 214.2 58.44 A 5.267 5.267 0 0 1 216.566 58.967 A 5.307 5.307 0 0 1 218.04 60.06 A 5.863 5.863 0 0 1 219.106 61.558 A 4.878 4.878 0 0 1 219.6 63.72 Z M 211.68 61.56 A 6.068 6.068 0 0 0 207.805 62.967 A 8.8 8.8 0 0 0 206.76 63.96 Q 204.643 66.313 203.678 71.317 A 32.233 32.233 0 0 0 203.64 71.52 Q 208.632 70.793 211.325 69.479 A 10.178 10.178 0 0 0 212.1 69.06 Q 214.8 67.44 214.8 65.4 A 5.511 5.511 0 0 0 214.672 64.18 A 3.863 3.863 0 0 0 213.96 62.64 A 2.687 2.687 0 0 0 211.999 61.574 A 3.586 3.586 0 0 0 211.68 61.56 Z" id="5" vector-effect="non-scaling-stroke"/>
		<path d="M 358.292 19.353 A 0.794 0.794 0 0 0 358.08 18.96 Q 354.48 17.76 350.1 16.5 Q 345.72 15.24 340.92 14.22 Q 336.12 13.2 331.08 12.54 Q 326.04 11.88 321.12 11.88 Q 309.48 11.88 302.16 18.12 A 23.878 23.878 0 0 0 295.25 28.228 A 34.965 34.965 0 0 0 293.4 36.12 A 1.714 1.714 0 0 0 293.432 36.254 Q 293.475 36.404 293.54 36.518 A 0.662 0.662 0 0 0 293.94 36.84 Q 294.36 36.96 294.6 36.36 A 40.874 40.874 0 0 1 295.076 33.552 Q 295.791 30.093 297.051 27.295 A 19.726 19.726 0 0 1 301.98 20.46 A 20.197 20.197 0 0 1 309.751 16.204 A 25.498 25.498 0 0 1 316.92 15.24 A 75.099 75.099 0 0 1 321.934 15.41 A 87.037 87.037 0 0 1 333.42 16.98 Q 342 18.72 350.04 21.36 Q 338.88 30.12 330.42 38.4 Q 321.96 46.68 315.12 53.88 A 1009.634 1009.634 0 0 1 314.566 53.896 Q 312.642 53.95 310.912 53.991 A 600.944 600.944 0 0 1 307.62 54.06 Q 305.145 54.105 303.716 54.184 A 30.284 30.284 0 0 0 302.88 54.24 A 6.893 6.893 0 0 0 302.09 54.387 A 8.381 8.381 0 0 0 300.9 54.78 A 10.96 10.96 0 0 0 300.14 55.127 A 8.716 8.716 0 0 0 299.1 55.74 Q 298.588 56.095 298.257 56.423 A 3.101 3.101 0 0 0 297.96 56.76 A 1.207 1.207 0 0 0 297.936 56.794 Q 297.663 57.185 298.063 57.324 A 1.046 1.046 0 0 0 298.2 57.36 Q 304.8 56.52 313.08 55.92 Q 309.96 59.28 307.14 62.22 Q 304.32 65.16 301.68 67.56 A 75.97 75.97 0 0 1 297.476 71.243 A 63.974 63.974 0 0 1 284.1 79.68 A 50.957 50.957 0 0 1 279.317 81.621 A 41.448 41.448 0 0 1 265.68 84 Q 261.765 84 258.685 83.203 A 16.833 16.833 0 0 1 254.4 81.48 A 18.336 18.336 0 0 1 251.514 79.422 A 13.241 13.241 0 0 1 248.28 75.24 Q 246.48 71.52 247.02 67.44 Q 247.56 63.36 250.44 60.24 Q 250.56 59.4 250.08 59.1 A 1.46 1.46 0 0 0 249.981 59.044 Q 249.77 58.934 249.584 58.934 A 0.608 0.608 0 0 0 249.24 59.04 A 26.993 26.993 0 0 0 247.436 61.422 A 21.776 21.776 0 0 0 244.14 69.06 A 24.957 24.957 0 0 0 243.891 70.405 Q 243.61 72.193 243.625 73.876 A 17.142 17.142 0 0 0 244.38 78.84 Q 245.76 83.28 249.54 86.22 A 12.292 12.292 0 0 0 250.631 86.978 Q 252.66 88.23 255.261 88.764 A 20.789 20.789 0 0 0 259.44 89.16 A 58.282 58.282 0 0 0 261.881 89.11 A 49.656 49.656 0 0 0 281.7 84.24 Q 291.84 79.32 301.44 70.56 Q 304.92 67.44 308.58 63.72 Q 312.24 60 316.2 55.8 Q 321.48 55.56 326.94 55.44 Q 332.4 55.32 338.04 55.32 Q 335.897 65.203 335.88 74.73 A 85.524 85.524 0 0 0 335.88 74.88 A 33.72 33.72 0 0 0 335.947 77.031 Q 336.09 79.279 336.544 81.198 A 16.876 16.876 0 0 0 337.98 85.14 A 9.615 9.615 0 0 0 339.047 86.78 A 6.161 6.161 0 0 0 344.04 89.16 A 4.478 4.478 0 0 0 344.829 89.088 Q 345.944 88.889 347.22 88.14 Q 348.96 87.12 350.76 85.5 A 30.299 30.299 0 0 0 350.872 85.399 A 32.699 32.699 0 0 0 354.18 81.9 Q 355.8 79.92 357 77.88 A 1.183 1.183 0 0 0 357.039 77.793 Q 357.168 77.475 357.005 77.272 A 0.55 0.55 0 0 0 356.88 77.16 Q 356.52 76.92 356.16 77.16 A 31.318 31.318 0 0 1 355.646 77.914 Q 353.329 81.209 350.946 82.684 A 7.352 7.352 0 0 1 347.04 83.88 A 6.937 6.937 0 0 1 346.302 83.842 Q 344.483 83.648 343.301 82.462 A 5.924 5.924 0 0 1 342.12 80.7 A 10.439 10.439 0 0 1 342.055 80.553 Q 341.117 78.394 340.819 75.089 A 37.185 37.185 0 0 1 340.68 71.76 Q 340.68 64.08 341.88 56.76 Q 343.08 49.44 345.3 42.84 A 79.924 79.924 0 0 1 346.239 40.201 A 69.928 69.928 0 0 1 350.64 30.66 A 58.71 58.71 0 0 1 351.942 28.446 A 51.052 51.052 0 0 1 357.72 20.76 A 5.265 5.265 0 0 0 357.948 20.468 Q 358.182 20.144 358.269 19.892 A 0.838 0.838 0 0 0 358.32 19.62 A 1.191 1.191 0 0 0 358.292 19.353 Z M 338.4 53.76 Q 340.44 45 344.04 36.66 A 77.813 77.813 0 0 1 351.291 23.434 A 71.114 71.114 0 0 1 352.68 21.48 A 289.519 289.519 0 0 0 340.901 31.492 A 233.221 233.221 0 0 0 333.72 38.22 Q 325.32 46.44 318.12 53.88 Q 323.88 53.76 329.52 53.76 L 338.4 53.76 Z" id="7" vector-effect="non-scaling-stroke"/>
		<path d="M 385.302 60.07 A 4.276 4.276 0 0 0 381.96 58.56 Q 379.44 58.56 376.2 61.32 A 24.883 24.883 0 0 0 374.675 62.739 Q 372.172 65.262 369.6 69.12 Q 370.92 66.48 372.06 63.78 A 116.281 116.281 0 0 0 372.731 62.157 Q 373.047 61.378 373.321 60.663 A 64.249 64.249 0 0 0 373.92 59.04 A 8.276 8.276 0 0 0 374.175 58.37 Q 374.47 57.474 374.421 56.801 A 2.193 2.193 0 0 0 374.34 56.34 A 1.938 1.938 0 0 0 374.178 55.945 Q 373.973 55.576 373.627 55.425 A 1.356 1.356 0 0 0 373.08 55.32 Q 372.42 55.32 371.618 55.661 A 7.224 7.224 0 0 0 370.86 56.04 Q 369.6 56.76 368.34 57.78 Q 367.08 58.8 365.88 59.88 A 31.301 31.301 0 0 0 365.177 60.532 Q 364.455 61.223 363.96 61.8 Q 363.863 61.995 364.041 62.308 A 1.801 1.801 0 0 0 364.14 62.46 Q 364.44 62.88 364.68 62.64 A 16.717 16.717 0 0 1 364.71 62.607 A 15.277 15.277 0 0 1 366.72 60.72 A 24.576 24.576 0 0 1 367.213 60.347 Q 367.997 59.768 368.64 59.4 A 3.714 3.714 0 0 1 368.792 59.322 Q 369.791 58.836 370.065 59.531 A 1.376 1.376 0 0 1 370.14 59.82 Q 370.289 60.762 368.758 64.367 A 77.126 77.126 0 0 1 368.04 66 Q 366.24 70.08 364.44 74.4 Q 362.64 78.72 361.08 83.04 Q 359.273 83.605 359.273 84.064 A 0.234 0.234 0 0 0 359.28 84.12 Q 359.4 84.6 359.58 85.02 A 5.383 5.383 0 0 0 359.586 85.034 A 4.831 4.831 0 0 0 360 85.8 A 173.641 173.641 0 0 0 358.167 91.142 A 148.168 148.168 0 0 0 354.96 102.48 Q 353.865 107.066 353.394 111.027 A 47.72 47.72 0 0 0 353.04 116.64 Q 353.04 117.164 353.181 117.532 A 1.275 1.275 0 0 0 353.64 118.14 A 2.003 2.003 0 0 0 353.865 118.277 Q 354.411 118.56 355.2 118.56 A 13.435 13.435 0 0 0 357.316 118.388 A 16.913 16.913 0 0 0 360 117.72 Q 361.654 117.169 362.842 116.618 A 13.487 13.487 0 0 0 363.96 116.04 A 1.101 1.101 0 0 0 364.11 115.701 Q 364.174 115.45 364.14 115.14 A 1.471 1.471 0 0 0 364.134 115.093 Q 364.07 114.649 363.779 114.705 A 0.46 0.46 0 0 0 363.72 114.72 A 13.124 13.124 0 0 1 362.539 115.352 A 10.585 10.585 0 0 1 360.12 116.16 Q 357.36 116.52 357.36 113.88 Q 357.36 108 359.04 101.22 A 175.066 175.066 0 0 1 359.93 97.776 A 151.331 151.331 0 0 1 362.76 88.44 Q 364.08 89.28 366.12 89.28 A 21.958 21.958 0 0 0 366.828 89.269 A 18.833 18.833 0 0 0 374.52 87.42 Q 378.36 85.56 381.18 82.38 Q 384 79.2 385.62 75.06 Q 387.24 70.92 387.24 66.24 A 14.962 14.962 0 0 0 387.229 65.659 Q 387.113 62.691 385.8 60.72 A 6.016 6.016 0 0 0 385.302 60.07 Z M 369.12 86.88 Q 372.12 86.88 374.7 85.56 Q 377.28 84.24 379.14 81.9 A 16.487 16.487 0 0 0 381.438 77.964 A 19.872 19.872 0 0 0 382.02 76.38 A 21.278 21.278 0 0 0 382.917 71.951 A 26.498 26.498 0 0 0 383.04 69.36 A 13.367 13.367 0 0 0 382.9 67.363 Q 382.661 65.79 382.02 64.62 A 3.717 3.717 0 0 0 381.078 63.473 Q 380.332 62.883 379.287 62.782 A 4.623 4.623 0 0 0 378.84 62.76 A 4.13 4.13 0 0 0 377.01 63.241 Q 375.562 63.959 373.879 65.752 A 27.904 27.904 0 0 0 372.24 67.68 Q 368.4 72.6 365.16 81.6 Q 364.92 82.2 364.74 82.8 Q 364.56 83.4 364.32 84 Q 364.92 85.32 366.06 86.1 Q 367.009 86.75 368.5 86.859 A 8.538 8.538 0 0 0 369.12 86.88 Z" id="8" vector-effect="non-scaling-stroke"/>
		<path d="M 416.622 60.07 A 4.276 4.276 0 0 0 413.28 58.56 Q 410.76 58.56 407.52 61.32 A 24.883 24.883 0 0 0 405.995 62.739 Q 403.492 65.262 400.92 69.12 Q 402.24 66.48 403.38 63.78 A 116.281 116.281 0 0 0 404.051 62.157 Q 404.367 61.378 404.641 60.663 A 64.249 64.249 0 0 0 405.24 59.04 A 8.276 8.276 0 0 0 405.495 58.37 Q 405.79 57.474 405.741 56.801 A 2.193 2.193 0 0 0 405.66 56.34 A 1.938 1.938 0 0 0 405.498 55.945 Q 405.293 55.576 404.947 55.425 A 1.356 1.356 0 0 0 404.4 55.32 Q 403.74 55.32 402.938 55.661 A 7.224 7.224 0 0 0 402.18 56.04 Q 400.92 56.76 399.66 57.78 Q 398.4 58.8 397.2 59.88 A 31.301 31.301 0 0 0 396.497 60.532 Q 395.775 61.223 395.28 61.8 Q 395.183 61.995 395.361 62.308 A 1.801 1.801 0 0 0 395.46 62.46 Q 395.76 62.88 396 62.64 A 16.717 16.717 0 0 1 396.03 62.607 A 15.277 15.277 0 0 1 398.04 60.72 A 24.576 24.576 0 0 1 398.533 60.347 Q 399.317 59.768 399.96 59.4 A 3.714 3.714 0 0 1 400.112 59.322 Q 401.111 58.836 401.385 59.531 A 1.376 1.376 0 0 1 401.46 59.82 Q 401.609 60.762 400.078 64.367 A 77.126 77.126 0 0 1 399.36 66 Q 397.56 70.08 395.76 74.4 Q 393.96 78.72 392.4 83.04 Q 390.593 83.605 390.593 84.064 A 0.234 0.234 0 0 0 390.6 84.12 Q 390.72 84.6 390.9 85.02 A 5.383 5.383 0 0 0 390.906 85.034 A 4.831 4.831 0 0 0 391.32 85.8 A 173.641 173.641 0 0 0 389.487 91.142 A 148.168 148.168 0 0 0 386.28 102.48 Q 385.185 107.066 384.714 111.027 A 47.72 47.72 0 0 0 384.36 116.64 Q 384.36 117.164 384.501 117.532 A 1.275 1.275 0 0 0 384.96 118.14 A 2.003 2.003 0 0 0 385.185 118.277 Q 385.731 118.56 386.52 118.56 A 13.435 13.435 0 0 0 388.636 118.388 A 16.913 16.913 0 0 0 391.32 117.72 Q 392.974 117.169 394.162 116.618 A 13.487 13.487 0 0 0 395.28 116.04 A 1.101 1.101 0 0 0 395.43 115.701 Q 395.494 115.45 395.46 115.14 A 1.471 1.471 0 0 0 395.454 115.093 Q 395.39 114.649 395.099 114.705 A 0.46 0.46 0 0 0 395.04 114.72 A 13.124 13.124 0 0 1 393.859 115.352 A 10.585 10.585 0 0 1 391.44 116.16 Q 388.68 116.52 388.68 113.88 Q 388.68 108 390.36 101.22 A 175.066 175.066 0 0 1 391.25 97.776 A 151.331 151.331 0 0 1 394.08 88.44 Q 395.4 89.28 397.44 89.28 A 21.958 21.958 0 0 0 398.148 89.269 A 18.833 18.833 0 0 0 405.84 87.42 Q 409.68 85.56 412.5 82.38 Q 415.32 79.2 416.94 75.06 Q 418.56 70.92 418.56 66.24 A 14.962 14.962 0 0 0 418.549 65.659 Q 418.433 62.691 417.12 60.72 A 6.016 6.016 0 0 0 416.622 60.07 Z M 400.44 86.88 Q 403.44 86.88 406.02 85.56 Q 408.6 84.24 410.46 81.9 A 16.487 16.487 0 0 0 412.758 77.964 A 19.872 19.872 0 0 0 413.34 76.38 A 21.278 21.278 0 0 0 414.237 71.951 A 26.498 26.498 0 0 0 414.36 69.36 A 13.367 13.367 0 0 0 414.22 67.363 Q 413.981 65.79 413.34 64.62 A 3.717 3.717 0 0 0 412.398 63.473 Q 411.652 62.883 410.607 62.782 A 4.623 4.623 0 0 0 410.16 62.76 A 4.13 4.13 0 0 0 408.33 63.241 Q 406.882 63.959 405.199 65.752 A 27.904 27.904 0 0 0 403.56 67.68 Q 399.72 72.6 396.48 81.6 Q 396.24 82.2 396.06 82.8 Q 395.88 83.4 395.64 84 Q 396.24 85.32 397.38 86.1 Q 398.329 86.75 399.82 86.859 A 8.538 8.538 0 0 0 400.44 86.88 Z" id="9" vector-effect="non-scaling-stroke"/>
		<path d="M 474.379 0.228 A 5.103 5.103 0 0 0 472.8 0 A 13.456 13.456 0 0 0 467.77 1.016 A 19.134 19.134 0 0 0 464.28 2.88 Q 461.85 4.5 459.439 6.766 A 52.704 52.704 0 0 0 455.7 10.68 A 78.134 78.134 0 0 0 452.018 15.284 A 99.165 99.165 0 0 0 447.42 22.08 Q 443.4 28.56 439.8 35.64 Q 436.2 42.72 433.14 49.98 A 202.216 202.216 0 0 0 430.972 55.333 A 167.455 167.455 0 0 0 427.92 63.84 Q 426.772 67.347 425.896 70.497 A 108.597 108.597 0 0 0 424.56 75.78 A 79.109 79.109 0 0 0 424.453 76.264 Q 423.718 79.633 423.477 82.187 A 24.57 24.57 0 0 0 423.36 84.48 Q 423.36 85.569 423.604 86.429 A 4.364 4.364 0 0 0 424.32 87.9 A 3.969 3.969 0 0 0 424.381 87.978 Q 425.329 89.16 426.84 89.16 A 3.926 3.926 0 0 0 427.446 89.112 Q 428.722 88.912 430.289 87.899 A 16.929 16.929 0 0 0 431.76 86.82 Q 434.64 84.48 437.04 80.76 A 1.223 1.223 0 0 0 437.062 80.651 Q 437.074 80.574 437.074 80.501 A 0.709 0.709 0 0 0 436.86 79.98 Q 436.61 79.73 436.318 79.856 A 0.739 0.739 0 0 0 436.2 79.92 Q 434.962 81.57 433.924 82.653 A 13.947 13.947 0 0 1 433.02 83.52 A 6.864 6.864 0 0 1 432.88 83.639 Q 432.388 84.044 431.889 84.297 A 3.698 3.698 0 0 1 430.2 84.72 Q 428.542 84.72 428.232 82.344 A 9.492 9.492 0 0 1 428.16 81.12 Q 428.16 77.903 428.954 73.353 A 94.863 94.863 0 0 1 429.84 68.94 A 128.412 128.412 0 0 1 431.551 62.194 A 161.628 161.628 0 0 1 434.46 52.98 Q 437.4 44.52 441.42 36 A 129.175 129.175 0 0 1 444.262 30.334 A 107.399 107.399 0 0 1 450.12 20.58 Q 454.8 13.68 459.84 9.36 Q 464.88 5.04 470.04 5.04 A 14.07 14.07 0 0 1 470.249 5.042 Q 472.73 5.079 473.94 6 A 3.378 3.378 0 0 1 474.326 6.342 Q 475.024 7.066 474.997 8.02 A 2.77 2.77 0 0 1 474.96 8.4 A 1.066 1.066 0 0 0 475.163 8.758 A 1.333 1.333 0 0 0 475.44 9 A 0.969 0.969 0 0 0 475.523 9.05 Q 475.828 9.212 476.04 9 Q 477.134 6.891 477.134 4.934 A 6.844 6.844 0 0 0 476.82 2.88 A 5.52 5.52 0 0 0 476.615 2.328 Q 475.921 0.729 474.379 0.228 Z" id="10" vector-effect="non-scaling-stroke"/>
		<path d="M 441.979 66.895 A 0.595 0.595 0 0 0 442.08 66.84 A 13.353 13.353 0 0 1 442.449 66.486 Q 443.103 65.881 444.094 65.097 A 55.687 55.687 0 0 1 445.02 64.38 A 376.927 376.927 0 0 1 445.216 64.232 Q 446.579 63.201 447.619 62.434 A 132.583 132.583 0 0 1 448.32 61.92 Q 447.51 63.135 446.681 64.616 A 59.779 59.779 0 0 0 445.38 67.08 Q 443.88 70.08 442.68 73.32 Q 441.48 76.56 440.7 79.74 A 34.993 34.993 0 0 0 440.366 81.24 Q 440.141 82.367 440.03 83.364 A 16.593 16.593 0 0 0 439.92 85.2 A 8.562 8.562 0 0 0 439.955 85.995 Q 440.25 89.16 443.04 89.16 Q 444.559 89.16 446.226 88.093 A 11.997 11.997 0 0 0 447.66 87 Q 450.12 84.84 452.28 82.2 A 1.173 1.173 0 0 0 452.287 82.186 Q 452.515 81.715 452.16 81.36 Q 451.86 81.06 451.643 81.177 A 0.36 0.36 0 0 0 451.56 81.24 A 55.72 55.72 0 0 1 450.527 82.39 Q 449.476 83.526 448.62 84.3 A 6.254 6.254 0 0 1 448.454 84.446 Q 448.004 84.825 447.546 85.059 A 3.269 3.269 0 0 1 446.04 85.44 Q 444.688 85.44 444.424 83.809 A 5.592 5.592 0 0 1 444.36 82.92 A 13.377 13.377 0 0 1 444.446 81.474 Q 444.608 79.986 445.08 78.06 A 54.993 54.993 0 0 1 445.571 76.2 A 64.858 64.858 0 0 1 446.94 71.94 A 71.816 71.816 0 0 1 447.012 71.742 A 77.911 77.911 0 0 1 449.58 65.52 A 93.27 93.27 0 0 1 450.713 63.158 A 78.086 78.086 0 0 1 452.64 59.52 A 2.322 2.322 0 0 0 452.639 59.456 Q 452.611 58.44 451.68 58.44 A 33.869 33.869 0 0 0 449.79 59.463 A 39.98 39.98 0 0 0 445.92 62.04 A 64.967 64.967 0 0 0 444.198 63.375 Q 443.399 64.018 442.722 64.611 A 28.716 28.716 0 0 0 441.36 65.88 A 0.723 0.723 0 0 0 441.323 65.942 Q 441.183 66.206 441.325 66.502 A 1.08 1.08 0 0 0 441.42 66.66 A 0.998 0.998 0 0 0 441.507 66.767 Q 441.728 67 441.979 66.895 Z M 452.772 53.374 A 0.972 0.972 0 0 0 452.88 53.28 Q 454.56 50.16 456.84 46.98 A 39.123 39.123 0 0 1 458.584 44.722 A 31.565 31.565 0 0 1 461.64 41.52 Q 461.88 41.28 461.52 40.98 A 1.289 1.289 0 0 0 461.474 40.944 Q 461.24 40.766 461.006 40.766 A 0.647 0.647 0 0 0 460.8 40.8 Q 455.16 45.72 452.04 50.04 A 1.741 1.741 0 0 0 451.739 50.695 A 2.381 2.381 0 0 0 451.68 51.24 Q 451.68 51.96 451.8 52.5 A 2.561 2.561 0 0 0 451.823 52.597 Q 451.947 53.068 452.22 53.34 Q 452.475 53.595 452.772 53.374 Z" id="11" vector-effect="non-scaling-stroke"/>
		<path d="M 474.843 68.131 A 0.864 0.864 0 0 0 475.08 68.16 A 2.101 2.101 0 0 0 475.154 68.122 Q 475.61 67.871 476.22 67.26 A 8.297 8.297 0 0 0 476.403 67.071 A 9.099 9.099 0 0 0 477.42 65.76 A 12.761 12.761 0 0 0 477.648 65.393 A 11.13 11.13 0 0 0 478.32 64.08 A 5.98 5.98 0 0 0 478.491 63.635 Q 478.68 63.075 478.68 62.64 Q 478.68 60.96 477.24 59.76 A 4.496 4.496 0 0 0 476.461 59.24 Q 475.176 58.56 473.28 58.56 A 8.888 8.888 0 0 0 469.851 59.262 A 11.909 11.909 0 0 0 467.4 60.66 A 18.916 18.916 0 0 0 465.169 62.575 A 22.645 22.645 0 0 0 462.3 66.12 A 28.746 28.746 0 0 0 460.995 68.303 A 32.865 32.865 0 0 0 458.7 73.68 Q 457.32 77.88 457.32 82.08 A 12.438 12.438 0 0 0 457.328 82.519 Q 457.369 83.687 457.633 84.67 A 6.405 6.405 0 0 0 459.06 87.36 A 5.786 5.786 0 0 0 460.957 88.77 A 5.927 5.927 0 0 0 463.44 89.28 Q 465.471 89.28 467.55 88.314 A 14.808 14.808 0 0 0 470.04 86.82 A 29.635 29.635 0 0 0 470.896 86.169 A 32.149 32.149 0 0 0 476.16 80.88 A 1.708 1.708 0 0 0 476.194 80.787 Q 476.263 80.581 476.255 80.413 A 0.576 0.576 0 0 0 476.04 79.98 Q 475.68 79.68 475.2 79.92 A 23.844 23.844 0 0 1 472.864 82.384 Q 471.454 83.659 470.045 84.422 A 8.763 8.763 0 0 1 465.84 85.56 A 5.436 5.436 0 0 1 465.619 85.556 Q 462.535 85.431 461.916 81.753 A 12.546 12.546 0 0 1 461.76 79.68 A 38.129 38.129 0 0 1 461.845 77.104 A 31.329 31.329 0 0 1 462.48 72.54 A 35.026 35.026 0 0 1 462.503 72.438 Q 463.219 69.202 464.4 66.78 A 16.308 16.308 0 0 1 464.489 66.6 Q 465.02 65.546 465.642 64.696 A 9.564 9.564 0 0 1 467.28 62.94 A 7.06 7.06 0 0 1 467.986 62.428 A 5.327 5.327 0 0 1 470.88 61.56 A 7.713 7.713 0 0 1 471.372 61.576 Q 473.723 61.726 474.54 63.36 A 4.15 4.15 0 0 1 474.975 65.243 Q 474.975 65.85 474.819 66.507 A 7.569 7.569 0 0 1 474.48 67.56 Q 474.48 68.027 474.843 68.131 Z" id="12" vector-effect="non-scaling-stroke"/>
		<path d="M 511.08 81.6 A 0.969 0.969 0 0 0 510.997 81.551 Q 510.692 81.389 510.48 81.6 A 35.5 35.5 0 0 1 509.321 83.019 Q 507.584 85.028 506.4 85.62 Q 505.573 86.034 505.016 85.992 A 1 1 0 0 1 504.24 85.56 A 1.912 1.912 0 0 1 504.163 85.435 Q 503.622 84.469 503.76 82.266 A 18.566 18.566 0 0 1 503.82 81.54 Q 503.998 79.795 504.451 77.732 A 53 53 0 0 1 505.2 74.76 A 42.523 42.523 0 0 1 506.137 71.847 A 51.525 51.525 0 0 1 508.26 66.84 Q 510.24 62.76 513 59.4 Q 513.205 58.888 512.796 58.813 A 0.878 0.878 0 0 0 512.64 58.8 Q 511.56 58.8 510.3 59.34 Q 509.512 59.678 508.936 60.039 A 5.618 5.618 0 0 0 508.32 60.48 Q 507 59.52 505.44 59.04 Q 504.514 58.755 503.376 58.64 A 16.385 16.385 0 0 0 501.72 58.56 Q 497.76 58.56 494.16 60.48 Q 490.56 62.4 487.8 65.58 Q 485.04 68.76 483.42 72.66 A 23.174 23.174 0 0 0 483.212 73.179 A 20.184 20.184 0 0 0 481.8 80.52 A 24.969 24.969 0 0 0 481.806 81.084 Q 481.897 85.096 483.3 87.06 A 6.332 6.332 0 0 0 484.065 87.954 A 4.062 4.062 0 0 0 486.96 89.16 A 9.768 9.768 0 0 0 489.298 88.318 Q 490.482 87.723 491.693 86.781 A 22.631 22.631 0 0 0 493.92 84.78 A 47.401 47.401 0 0 0 497.001 81.314 A 59.796 59.796 0 0 0 500.76 76.08 A 37.014 37.014 0 0 0 500.388 77.484 A 31.549 31.549 0 0 0 499.74 80.94 A 24.577 24.577 0 0 0 499.619 82.098 Q 499.54 83.077 499.555 83.962 A 14.824 14.824 0 0 0 499.62 85.14 Q 499.8 87 500.46 88.08 A 2.951 2.951 0 0 0 500.745 88.475 A 1.853 1.853 0 0 0 502.2 89.16 A 3.633 3.633 0 0 0 502.568 89.141 Q 504.143 88.981 506.34 87.48 A 14.084 14.084 0 0 0 507.625 86.484 Q 508.566 85.667 509.516 84.589 A 30.29 30.29 0 0 0 511.32 82.32 A 1.071 1.071 0 0 0 511.341 82.218 Q 511.38 81.95 511.252 81.765 A 0.635 0.635 0 0 0 511.08 81.6 Z M 489.6 85.08 A 2.58 2.58 0 0 0 490.477 84.908 Q 491.264 84.622 492.25 83.861 A 14.873 14.873 0 0 0 493.02 83.22 Q 494.813 81.632 496.738 79.212 A 48.957 48.957 0 0 0 497.4 78.36 A 62.674 62.674 0 0 0 500.086 74.523 A 78.622 78.622 0 0 0 501.9 71.58 Q 504.12 67.8 505.8 63.96 Q 505.32 62.4 503.58 61.44 Q 501.84 60.48 499.56 60.48 Q 496.92 60.48 494.58 61.86 A 13.244 13.244 0 0 0 491.434 64.47 A 16.153 16.153 0 0 0 490.44 65.7 A 18.68 18.68 0 0 0 488.471 69.127 A 23.494 23.494 0 0 0 487.56 71.52 A 22.394 22.394 0 0 0 486.619 76.121 A 28.099 28.099 0 0 0 486.48 78.96 A 12.797 12.797 0 0 0 486.607 80.814 Q 486.817 82.253 487.38 83.34 Q 487.869 84.285 488.481 84.717 A 1.903 1.903 0 0 0 489.6 85.08 Z" id="13" vector-effect="non-scaling-stroke"/>
		<path d="M 538.287 59.023 A 1.307 1.307 0 0 0 538.08 58.92 Q 535.68 58.92 533.52 58.98 Q 531.36 59.04 529.2 59.04 Q 531 54.96 532.98 51.12 A 89.259 89.259 0 0 1 534.599 48.119 A 71.576 71.576 0 0 1 537 44.16 A 0.594 0.594 0 0 0 537.003 44.152 Q 537.096 43.858 536.78 43.768 A 0.942 0.942 0 0 0 536.64 43.74 A 1.819 1.819 0 0 0 536.547 43.731 Q 536.081 43.697 535.32 43.86 A 4.995 4.995 0 0 0 534.411 44.153 A 6.785 6.785 0 0 0 533.58 44.58 Q 532.68 45.12 531.96 45.84 A 88.334 88.334 0 0 0 530.7 48.076 A 108.022 108.022 0 0 0 528.6 52.14 A 222.448 222.448 0 0 0 528.18 53 A 246.852 246.852 0 0 0 525.24 59.28 L 524.34 59.28 A 3.455 3.455 0 0 0 524.114 59.288 Q 523.767 59.311 523.32 59.4 A 4.925 4.925 0 0 0 522.298 59.512 A 6.574 6.574 0 0 0 521.28 59.82 Q 520.723 60.037 520.246 60.27 A 9.607 9.607 0 0 0 519.42 60.72 A 6.573 6.573 0 0 0 519.388 60.74 Q 518.899 61.045 518.603 61.35 A 2.009 2.009 0 0 0 518.34 61.68 Q 518.081 62.095 518.494 62.241 A 1.072 1.072 0 0 0 518.64 62.28 Q 519.96 62.04 521.4 61.8 Q 522.84 61.56 524.4 61.32 Q 521.88 67.68 520.2 73.68 A 59.727 59.727 0 0 0 519.278 77.398 Q 518.908 79.147 518.719 80.677 A 24.22 24.22 0 0 0 518.52 83.64 A 7.682 7.682 0 0 0 518.557 84.405 A 5.962 5.962 0 0 0 519.78 87.54 A 3.845 3.845 0 0 0 520.489 88.244 Q 521.694 89.16 523.68 89.16 Q 524.52 89.16 525.84 88.5 Q 527.16 87.84 528.6 86.76 Q 530.04 85.68 531.42 84.18 Q 532.8 82.68 533.88 81 A 1.639 1.639 0 0 0 533.901 80.873 Q 533.917 80.733 533.905 80.612 A 0.736 0.736 0 0 0 533.64 80.1 A 1.006 1.006 0 0 0 533.607 80.074 Q 533.333 79.865 533.059 79.968 A 0.691 0.691 0 0 0 532.92 80.04 Q 529.2 85.56 526.08 85.56 A 4.358 4.358 0 0 1 525.709 85.545 Q 523.554 85.361 523.088 82.968 A 7.825 7.825 0 0 1 522.96 81.48 A 16.781 16.781 0 0 1 522.96 81.441 Q 522.969 77.85 524.52 72.36 Q 526.08 66.84 528.48 60.84 Q 530.88 60.6 533.22 60.48 Q 535.56 60.36 537.48 60.24 Q 538.042 60.17 538.317 59.976 A 0.581 0.581 0 0 0 538.56 59.64 A 0.718 0.718 0 0 0 538.571 59.591 Q 538.633 59.239 538.287 59.023 Z" id="14" vector-effect="non-scaling-stroke"/>
		<path d="M 540.019 66.895 A 0.595 0.595 0 0 0 540.12 66.84 A 13.353 13.353 0 0 1 540.489 66.486 Q 541.143 65.881 542.134 65.097 A 55.687 55.687 0 0 1 543.06 64.38 A 376.927 376.927 0 0 1 543.256 64.232 Q 544.619 63.201 545.659 62.434 A 132.583 132.583 0 0 1 546.36 61.92 Q 545.55 63.135 544.721 64.616 A 59.779 59.779 0 0 0 543.42 67.08 Q 541.92 70.08 540.72 73.32 Q 539.52 76.56 538.74 79.74 A 34.993 34.993 0 0 0 538.406 81.24 Q 538.181 82.367 538.07 83.364 A 16.593 16.593 0 0 0 537.96 85.2 A 8.562 8.562 0 0 0 537.995 85.995 Q 538.29 89.16 541.08 89.16 Q 542.599 89.16 544.266 88.093 A 11.997 11.997 0 0 0 545.7 87 Q 548.16 84.84 550.32 82.2 A 1.173 1.173 0 0 0 550.327 82.186 Q 550.555 81.715 550.2 81.36 Q 549.9 81.06 549.683 81.177 A 0.36 0.36 0 0 0 549.6 81.24 A 55.72 55.72 0 0 1 548.567 82.39 Q 547.516 83.526 546.66 84.3 A 6.254 6.254 0 0 1 546.494 84.446 Q 546.044 84.825 545.586 85.059 A 3.269 3.269 0 0 1 544.08 85.44 Q 542.728 85.44 542.464 83.809 A 5.592 5.592 0 0 1 542.4 82.92 A 13.377 13.377 0 0 1 542.486 81.474 Q 542.648 79.986 543.12 78.06 A 54.993 54.993 0 0 1 543.611 76.2 A 64.858 64.858 0 0 1 544.98 71.94 A 71.816 71.816 0 0 1 545.052 71.742 A 77.911 77.911 0 0 1 547.62 65.52 A 93.27 93.27 0 0 1 548.753 63.158 A 78.086 78.086 0 0 1 550.68 59.52 A 2.322 2.322 0 0 0 550.679 59.456 Q 550.651 58.44 549.72 58.44 A 33.869 33.869 0 0 0 547.83 59.463 A 39.98 39.98 0 0 0 543.96 62.04 A 64.967 64.967 0 0 0 542.238 63.375 Q 541.439 64.018 540.762 64.611 A 28.716 28.716 0 0 0 539.4 65.88 A 0.723 0.723 0 0 0 539.363 65.942 Q 539.223 66.206 539.365 66.502 A 1.08 1.08 0 0 0 539.46 66.66 A 0.998 0.998 0 0 0 539.547 66.767 Q 539.768 67 540.019 66.895 Z M 550.812 53.374 A 0.972 0.972 0 0 0 550.92 53.28 Q 552.6 50.16 554.88 46.98 A 39.123 39.123 0 0 1 556.624 44.722 A 31.565 31.565 0 0 1 559.68 41.52 Q 559.92 41.28 559.56 40.98 A 1.289 1.289 0 0 0 559.514 40.944 Q 559.28 40.766 559.046 40.766 A 0.647 0.647 0 0 0 558.84 40.8 Q 553.2 45.72 550.08 50.04 A 1.741 1.741 0 0 0 549.779 50.695 A 2.381 2.381 0 0 0 549.72 51.24 Q 549.72 51.96 549.84 52.5 A 2.561 2.561 0 0 0 549.863 52.597 Q 549.987 53.068 550.26 53.34 Q 550.515 53.595 550.812 53.374 Z" id="15" vector-effect="non-scaling-stroke"/>
		<path d="M 571.2 58.44 Q 574.44 58.44 576 60.6 Q 577.56 62.76 577.56 66.24 A 22.463 22.463 0 0 1 576.279 73.635 A 25.733 25.733 0 0 1 576 74.4 Q 574.44 78.48 572.04 81.78 A 26.639 26.639 0 0 1 569.371 84.931 A 20.944 20.944 0 0 1 566.82 87.12 A 13.998 13.998 0 0 1 565.099 88.196 Q 564.117 88.708 563.191 88.949 A 6.325 6.325 0 0 1 561.6 89.16 Q 558.784 89.16 557.115 86.981 A 6.828 6.828 0 0 1 557.04 86.88 Q 555.36 84.6 555.36 80.4 A 19.616 19.616 0 0 1 555.778 76.469 A 26.247 26.247 0 0 1 556.68 73.2 Q 558 69.36 560.22 66.06 A 24.432 24.432 0 0 1 563.229 62.381 A 20.72 20.72 0 0 1 565.26 60.6 A 11.065 11.065 0 0 1 567.877 59.086 A 8.878 8.878 0 0 1 571.2 58.44 Z M 564 85.44 A 5.458 5.458 0 0 0 566.364 84.885 A 7.498 7.498 0 0 0 567.54 84.18 A 11.024 11.024 0 0 0 569.643 82.165 A 13.906 13.906 0 0 0 570.6 80.82 A 17.112 17.112 0 0 0 572.039 77.938 A 21.429 21.429 0 0 0 572.7 75.96 Q 573.48 73.2 573.48 70.2 Q 573.48 66.6 572.28 64.5 A 3.961 3.961 0 0 0 569.415 62.494 A 6.107 6.107 0 0 0 568.32 62.4 A 5.341 5.341 0 0 0 565.808 63.044 A 7.189 7.189 0 0 0 564.84 63.66 A 10.597 10.597 0 0 0 562.904 65.564 A 13.543 13.543 0 0 0 561.9 67.02 A 16.434 16.434 0 0 0 560.624 69.689 A 21.411 21.411 0 0 0 559.92 71.94 A 23.602 23.602 0 0 0 559.211 77.105 A 26.565 26.565 0 0 0 559.2 77.88 A 17.819 17.819 0 0 0 559.369 80.45 Q 560.1 85.44 564 85.44 Z" id="16" vector-effect="non-scaling-stroke"/>
		<path d="M 612.752 81.401 A 0.781 0.781 0 0 0 612.6 81.48 Q 610.528 84.27 608.721 85.206 A 3.823 3.823 0 0 1 606.96 85.68 A 1.711 1.711 0 0 1 605.964 85.399 Q 605.04 84.762 605.04 82.68 A 20.683 20.683 0 0 1 605.049 82.086 Q 605.109 79.992 605.591 77.709 A 34.174 34.174 0 0 1 606.78 73.5 Q 608.52 68.52 611.04 63.96 A 8.595 8.595 0 0 0 611.294 63.351 A 7.168 7.168 0 0 0 611.76 60.84 A 2.105 2.105 0 0 0 611.485 59.785 A 2.594 2.594 0 0 0 610.98 59.16 A 2.366 2.366 0 0 0 610.514 58.826 Q 610.127 58.613 609.632 58.518 A 4.617 4.617 0 0 0 608.76 58.44 A 7.899 7.899 0 0 0 608.446 58.447 Q 606.422 58.527 604.14 59.64 A 21.774 21.774 0 0 0 601.987 60.851 A 27.485 27.485 0 0 0 599.22 62.88 Q 596.76 64.92 594.48 67.8 Q 592.2 70.68 590.52 73.92 Q 591.48 71.04 592.32 68.1 A 65.988 65.988 0 0 0 592.899 65.938 A 54.273 54.273 0 0 0 593.64 62.52 Q 594.425 59.183 592.561 58.576 A 3.104 3.104 0 0 0 591.6 58.44 A 6.377 6.377 0 0 0 588.478 59.263 A 8.822 8.822 0 0 0 586.68 60.6 A 33.167 33.167 0 0 0 586.235 61.03 Q 585.292 61.957 584.528 62.862 A 19.117 19.117 0 0 0 583.08 64.8 A 0.647 0.647 0 0 0 583.046 65.006 Q 583.046 65.175 583.138 65.344 A 1.108 1.108 0 0 0 583.26 65.52 A 1.168 1.168 0 0 0 583.299 65.565 Q 583.576 65.865 583.8 65.64 A 32.436 32.436 0 0 1 584.286 64.953 Q 584.815 64.224 585.325 63.614 A 16.728 16.728 0 0 1 586.32 62.52 A 5.969 5.969 0 0 1 586.732 62.143 Q 587.726 61.32 588.72 61.32 A 1.372 1.372 0 0 1 588.857 61.327 Q 590.014 61.443 589.56 63.6 Q 587.88 69.96 585.66 76.44 Q 583.44 82.92 581.4 88.08 A 1.913 1.913 0 0 0 581.375 88.161 Q 581.136 89.001 581.994 89.135 A 2.385 2.385 0 0 0 582.36 89.16 A 4.925 4.925 0 0 0 583.382 89.049 A 6.574 6.574 0 0 0 584.4 88.74 A 3.748 3.748 0 0 0 584.857 88.529 Q 585.122 88.382 585.312 88.208 A 1.44 1.44 0 0 0 585.72 87.6 Q 590.28 74.52 595.62 68.4 Q 598.999 64.528 602.018 63.106 A 7.921 7.921 0 0 1 605.4 62.28 A 1.755 1.755 0 0 1 605.728 62.309 Q 606.6 62.475 606.6 63.6 A 3.045 3.045 0 0 1 606.48 64.442 A 3.798 3.798 0 0 1 606.12 65.28 A 65.851 65.851 0 0 0 605.213 67.168 A 57.79 57.79 0 0 0 602.16 75.3 A 46.319 46.319 0 0 0 601.98 75.939 Q 601.373 78.159 601.058 80.197 A 27.312 27.312 0 0 0 600.72 84.36 Q 600.72 87.923 602.769 88.841 A 4.055 4.055 0 0 0 604.44 89.16 A 5.009 5.009 0 0 0 606.003 88.899 Q 607.469 88.419 609.06 87.06 A 27.12 27.12 0 0 0 609.442 86.728 A 29.274 29.274 0 0 0 613.56 82.2 A 1.071 1.071 0 0 0 613.581 82.098 Q 613.62 81.83 613.492 81.645 A 0.635 0.635 0 0 0 613.32 81.48 Q 613.036 81.291 612.752 81.401 Z" id="17" vector-effect="non-scaling-stroke"/>
		<path d="M 632.05 58.55 A 12.311 12.311 0 0 0 630.36 58.44 A 14.449 14.449 0 0 0 630.315 58.441 Q 628.887 58.445 627.67 58.732 A 7.879 7.879 0 0 0 624.06 60.6 A 8.644 8.644 0 0 0 623.846 60.805 A 6.876 6.876 0 0 0 621.72 65.88 Q 621.72 68.04 622.74 69.9 A 42.983 42.983 0 0 0 622.868 70.133 A 46.782 46.782 0 0 0 625.02 73.62 Q 626.28 75.48 627.36 77.46 Q 628.44 79.44 628.44 81.72 Q 628.44 84.36 626.7 86.04 Q 625.551 87.15 623.801 87.526 A 9.317 9.317 0 0 1 621.84 87.72 Q 619.8 87.72 618.3 86.7 A 4.124 4.124 0 0 1 616.895 85.079 A 5.367 5.367 0 0 1 616.44 83.64 A 2.559 2.559 0 0 1 616.421 83.56 Q 616.279 82.901 616.467 82.106 A 5.438 5.438 0 0 1 616.68 81.42 Q 617.16 80.16 618.12 79.2 A 0.712 0.712 0 0 0 618.183 79.085 Q 618.283 78.852 618.155 78.618 A 0.862 0.862 0 0 0 618.06 78.48 A 0.909 0.909 0 0 0 618.008 78.423 Q 617.775 78.187 617.507 78.302 A 0.662 0.662 0 0 0 617.4 78.36 Q 615.72 79.68 614.4 81.84 Q 613.431 83.427 613.173 84.431 A 2.647 2.647 0 0 0 613.08 85.08 A 1.797 1.797 0 0 0 613.217 85.763 Q 613.65 86.827 615.447 87.822 A 11.817 11.817 0 0 0 615.48 87.84 Q 616.989 88.671 619.021 88.979 A 17.226 17.226 0 0 0 621.6 89.16 A 19.227 19.227 0 0 0 623.509 89.07 Q 625.127 88.908 626.451 88.459 A 8.456 8.456 0 0 0 629.7 86.52 A 8.992 8.992 0 0 0 631.522 84.03 A 8.975 8.975 0 0 0 632.4 80.04 A 10.983 10.983 0 0 0 632.388 79.521 A 9.285 9.285 0 0 0 631.38 75.66 Q 630.36 73.68 629.1 71.94 A 46.909 46.909 0 0 1 628.789 71.505 A 42.615 42.615 0 0 1 626.82 68.46 Q 625.8 66.72 625.8 64.8 Q 625.8 63.675 626.077 62.814 A 3.777 3.777 0 0 1 627.06 61.2 A 4.183 4.183 0 0 1 628.885 60.184 A 5.642 5.642 0 0 1 630.36 60 A 4.889 4.889 0 0 1 631.507 60.125 Q 632.566 60.381 633.154 61.161 A 3.406 3.406 0 0 1 633.72 62.4 A 3.962 3.962 0 0 1 633.824 62.873 Q 633.927 63.533 633.84 64.32 A 7.892 7.892 0 0 1 633.696 65.189 A 6.052 6.052 0 0 1 633.36 66.24 A 0.561 0.561 0 0 0 633.343 66.304 Q 633.292 66.551 633.519 66.705 A 0.844 0.844 0 0 0 633.66 66.78 A 1.221 1.221 0 0 0 633.722 66.805 Q 634.098 66.942 634.32 66.72 A 10.216 10.216 0 0 0 634.601 66.175 Q 634.828 65.701 635.047 65.136 A 21.583 21.583 0 0 0 635.46 63.96 A 14.451 14.451 0 0 0 635.609 63.466 Q 636 62.083 636 60.96 Q 636 60.21 635.011 59.57 A 5.767 5.767 0 0 0 634.38 59.22 A 6.621 6.621 0 0 0 633.717 58.946 Q 632.956 58.676 632.05 58.55 Z" id="18" vector-effect="non-scaling-stroke"/>
	</g>
</svg>